<?xml version="1.0" encoding="utf-8"?>
<!-- Generator: Adobe Illustrator 21.0.1, SVG Export Plug-In . SVG Version: 6.00 Build 0)  -->
<svg version="1.1" id="Слой_1" xmlns="http://www.w3.org/2000/svg" xmlns:xlink="http://www.w3.org/1999/xlink" x="0px" y="0px"
	 viewBox="0 0 165 165" style="enable-background:new 0 0 165 165;" xml:space="preserve">
<style type="text/css">
	.st0{fill:none;stroke:#FFFFFF;stroke-linecap:round;stroke-linejoin:round;stroke-dasharray:0,0,0,19.9378;}
	.st1{fill:#FFFFFF;}
	.st2{fill:#32B482;}
</style>
<g>
	<circle class="st0" cx="82.5" cy="82.5" r="82.5"/>
</g>
<circle class="st1" cx="82.5" cy="82.5" r="52.5"/>
<g>
	<g>
		<g>
			<path class="st2" d="M82.5,63.4c-9.9,0-18,8.1-18,18c0,3.1,0.8,6.2,2.4,8.9c1.5,2.6,3.7,4.8,6.2,6.4c2,1.2,2.4,2.4,2.6,4.1v8.6
				c0,0.7,0.6,1.2,1.2,1.2h0.3v2.6c0,0.7,0.6,1.2,1.2,1.2h7.9c0.7,0,1.2-0.6,1.2-1.2v-2.6h0.3c0.7,0,1.2-0.6,1.2-1.2v-8.6
				c0.2-1.7,0.6-2.8,2.6-4.1c2.6-1.6,4.7-3.8,6.2-6.4c1.5-2.7,2.4-5.8,2.4-8.9C100.5,71.5,92.5,63.4,82.5,63.4z M85.3,112.1h-5.4
				v-1.4h5.4V112.1z M86.8,103.9H84c-0.7,0-1.2,0.6-1.2,1.2c0,0.6,0.6,1.2,1.2,1.2h2.8v1.8h-0.3h-7.9h-0.3v-6.2h8.6L86.8,103.9
				L86.8,103.9z M90.6,94.6c-2.1,1.3-3.2,2.7-3.6,4.9h-4.5H78c-0.4-2.1-1.5-3.6-3.6-4.9c-4.6-2.8-7.4-7.8-7.4-13.2
				c0-8.5,6.9-15.5,15.5-15.5C91,65.9,98,72.8,98,81.4C98,86.9,95.3,91.8,90.6,94.6z"/>
		</g>
	</g>
	<g>
		<g>
			<path class="st2" d="M89,69l-0.1-0.1c-0.6-0.3-1.4-0.1-1.7,0.5c-0.3,0.6-0.1,1.4,0.5,1.7l0.1,0.1c0.2,0.1,0.4,0.1,0.6,0.1
				c0.5,0,0.9-0.2,1.1-0.7C89.8,70.1,89.6,69.3,89,69z"/>
		</g>
	</g>
	<g>
		<g>
			<path class="st2" d="M92.4,71.5c-0.5-0.5-1.3-0.5-1.8,0s-0.5,1.3,0,1.8c2.2,2.2,3.4,5.1,3.4,8.2c0,1.2-0.2,2.3-0.5,3.4
				c-0.2,0.7,0.2,1.4,0.8,1.6c0.1,0,0.2,0.1,0.4,0.1c0.5,0,1-0.3,1.2-0.9c0.4-1.3,0.6-2.7,0.6-4.2C96.5,77.7,95.1,74.1,92.4,71.5z"
				/>
		</g>
	</g>
	<g>
		<g>
			<path class="st2" d="M82.5,50.6c-0.7,0-1.2,0.6-1.2,1.2v8.8c0,0.7,0.6,1.2,1.2,1.2c0.6,0,1.2-0.6,1.2-1.2v-8.8
				C83.8,51.2,83.2,50.6,82.5,50.6z"/>
		</g>
	</g>
	<g>
		<g>
			<path class="st2" d="M61.7,80.2h-8.8c-0.7,0-1.2,0.6-1.2,1.2s0.6,1.2,1.2,1.2h8.8c0.7,0,1.2-0.6,1.2-1.2S62.4,80.2,61.7,80.2z"/>
		</g>
	</g>
	<g>
		<g>
			<path class="st2" d="M112.1,80.2h-8.7c-0.7,0-1.2,0.6-1.2,1.2s0.6,1.2,1.2,1.2h8.7c0.7,0,1.2-0.6,1.2-1.2S112.8,80.2,112.1,80.2z
				"/>
		</g>
	</g>
	<g>
		<g>
			<path class="st2" d="M73.2,62.8l-4.4-7.6c-0.3-0.6-1.1-0.8-1.7-0.5c-0.6,0.3-0.8,1.1-0.5,1.7L71,64c0.2,0.4,0.7,0.6,1.1,0.6
				c0.2,0,0.4-0.1,0.6-0.2C73.3,64.1,73.5,63.4,73.2,62.8z"/>
		</g>
	</g>
	<g>
		<g>
			<path class="st2" d="M98.4,106.4L94,98.8c-0.3-0.6-1.1-0.8-1.7-0.5c-0.6,0.3-0.8,1.1-0.5,1.7l4.4,7.6c0.2,0.4,0.7,0.6,1.1,0.6
				c0.2,0,0.4-0.1,0.6-0.2C98.5,107.8,98.7,107,98.4,106.4z"/>
		</g>
	</g>
	<g>
		<g>
			<path class="st2" d="M65.1,69.9l-7.6-4.3c-0.6-0.3-1.4-0.1-1.7,0.5c-0.3,0.5-0.1,1.3,0.5,1.6l7.6,4.4c0.2,0.1,0.4,0.2,0.6,0.2
				c0.4,0,0.9-0.2,1.1-0.6C65.9,71,65.7,70.3,65.1,69.9z"/>
		</g>
	</g>
	<g>
		<g>
			<path class="st2" d="M108.8,95.1l-7.6-4.4c-0.6-0.3-1.4-0.1-1.7,0.5c-0.3,0.6-0.1,1.4,0.5,1.7l7.6,4.4c0.2,0.1,0.4,0.2,0.6,0.2
				c0.4,0,0.9-0.2,1.1-0.6C109.6,96.2,109.4,95.5,108.8,95.1z"/>
		</g>
	</g>
	<g>
		<g>
			<path class="st2" d="M109.2,66c-0.3-0.6-1.1-0.8-1.7-0.5l-7.6,4.4c-0.6,0.3-0.8,1.1-0.5,1.7c0.2,0.4,0.7,0.6,1.1,0.6
				c0.2,0,0.4-0.1,0.6-0.2l7.6-4.4C109.4,67.4,109.6,66.6,109.2,66z"/>
		</g>
	</g>
	<g>
		<g>
			<path class="st2" d="M65.6,91.2c-0.3-0.6-1.1-0.8-1.7-0.5l-7.6,4.4c-0.6,0.3-0.8,1.1-0.5,1.7c0.2,0.4,0.7,0.6,1.1,0.6
				c0.2,0,0.4-0.1,0.6-0.2l7.6-4.4C65.7,92.6,65.9,91.8,65.6,91.2z"/>
		</g>
	</g>
	<g>
		<g>
			<path class="st2" d="M72.7,98.4c-0.6-0.3-1.4-0.1-1.7,0.5l-4.3,7.5c-0.3,0.6-0.1,1.4,0.5,1.7c0.2,0.1,0.4,0.2,0.6,0.2
				c0.4,0,0.9-0.2,1.1-0.6l4.4-7.6C73.5,99.5,73.3,98.7,72.7,98.4z"/>
		</g>
	</g>
	<g>
		<g>
			<path class="st2" d="M97.9,54.7c-0.6-0.3-1.4-0.1-1.7,0.5l-4.4,7.6c-0.3,0.6-0.1,1.4,0.5,1.7c0.2,0.1,0.4,0.1,0.6,0.1
				c0.4,0,0.9-0.2,1.1-0.6l4.4-7.6C98.7,55.8,98.5,55.1,97.9,54.7z"/>
		</g>
	</g>
	<g>
		<g>
			<path class="st2" d="M81,103.9L81,103.9c-0.7,0-1.3,0.6-1.3,1.2c0,0.6,0.6,1.2,1.2,1.2l0,0c0.7,0,1.2-0.6,1.2-1.2
				C82.1,104.5,81.7,103.9,81,103.9z"/>
		</g>
	</g>
	<g>
		<g>
			<path class="st2" d="M83.8,81.5v-3.9c0.2,0.2,0.4,0.3,0.5,0.6c0.4,0.6,1.1,0.8,1.7,0.4c0.6-0.4,0.8-1.1,0.4-1.7
				c-0.6-1-1.6-1.7-2.6-2v-1.6c0-0.7-0.6-1.2-1.2-1.2c-0.7,0-1.2,0.6-1.2,1.2v1.6c-1.9,0.5-3.3,2.3-3.3,4.4c0,2.1,1.4,3.9,3.3,4.4
				v3.9c-0.2-0.2-0.4-0.3-0.5-0.6c-0.4-0.6-1.1-0.8-1.7-0.4c-0.6,0.4-0.8,1.1-0.4,1.7c0.6,1,1.6,1.7,2.6,2v1.6
				c0,0.7,0.6,1.2,1.2,1.2c0.7,0,1.2-0.6,1.2-1.2v-1.6c1.9-0.5,3.3-2.3,3.3-4.4C87.1,83.9,85.7,82.1,83.8,81.5z M81.3,80.9
				c-0.5-0.4-0.8-1-0.8-1.7c0-0.7,0.3-1.3,0.8-1.7V80.9z M83.8,87.6v-3.3c0.5,0.4,0.8,1,0.8,1.7C84.6,86.6,84.3,87.2,83.8,87.6z"/>
		</g>
	</g>
</g>
</svg>
