<?xml version="1.0" encoding="utf-8"?>
<!-- Generator: Adobe Illustrator 21.0.1, SVG Export Plug-In . SVG Version: 6.00 Build 0)  -->
<svg version="1.1" id="Слой_1" xmlns="http://www.w3.org/2000/svg" xmlns:xlink="http://www.w3.org/1999/xlink" x="0px" y="0px"
	 viewBox="0 0 165 165" style="enable-background:new 0 0 165 165;" xml:space="preserve">
<style type="text/css">
	.st0{fill:none;stroke:#FFFFFF;stroke-linecap:round;stroke-linejoin:round;stroke-dasharray:0,0,0,19.9378;}
	.st1{fill:#FFFFFF;}
	.st2{fill:#32B482;}
</style>
<g>
	<circle class="st0" cx="82.5" cy="82.5" r="82.5"/>
</g>
<circle class="st1" cx="82.5" cy="82.5" r="52.5"/>
<g>
	<path class="st2" d="M105.576,76.779c-0.422-0.548-0.864-1.066-1.315-1.539c-2.647-2.778-5.907-4.572-9.428-5.19
		c-0.68-0.119-1.328,0.335-1.447,1.015c-0.119,0.68,0.335,1.328,1.015,1.447c2.991,0.525,5.775,2.064,8.05,4.452
		c0.391,0.41,0.776,0.861,1.144,1.34c0.246,0.32,0.617,0.488,0.992,0.488c0.266,0,0.534-0.085,0.762-0.259
		C105.894,78.111,105.996,77.326,105.576,76.779z"/>
	<path class="st2" d="M107.571,79.952c-0.309-0.617-1.058-0.865-1.676-0.556c-0.617,0.309-0.866,1.061-0.558,1.679
		c0.211,0.456,0.663,0.724,1.134,0.724c0.175,0,0.352-0.037,0.522-0.115c0.627-0.288,0.902-1.031,0.613-1.658
		C107.595,80.002,107.582,79.977,107.571,79.952z"/>
	<path class="st2" d="M113.095,89.067c-0.513-1.075-1.361-2.855-1.376-3.444c1.462-3.603,0.929-7.59-1.506-11.237
		c-3.744-5.609-11.418-9.681-18.247-9.681c-2.275,0-4.518,0.341-6.67,1.011h-0.618c-0.158-0.438-0.337-0.87-0.536-1.292l3.565-3.564
		c0.234-0.234,0.366-0.552,0.366-0.884s-0.132-0.65-0.366-0.884l-5.33-5.33c-0.488-0.488-1.279-0.488-1.768,0l-3.564,3.564
		c-0.422-0.199-0.854-0.378-1.292-0.536v-5.04c0-0.69-0.56-1.25-1.25-1.25h-7.537c-0.69,0-1.25,0.56-1.25,1.25v5.04
		c-0.439,0.158-0.87,0.337-1.292,0.536l-3.564-3.564c-0.234-0.235-0.552-0.366-0.884-0.366s-0.649,0.132-0.884,0.366l-5.33,5.329
		c-0.488,0.488-0.488,1.28,0,1.768l3.564,3.564c-0.199,0.422-0.378,0.853-0.536,1.292h-5.04c-0.69,0-1.25,0.56-1.25,1.25v7.537
		c0,0.69,0.56,1.25,1.25,1.25h5.04c0.158,0.439,0.337,0.87,0.536,1.292l-3.564,3.564c-0.488,0.488-0.488,1.28,0,1.768l5.33,5.33
		c0.488,0.488,1.279,0.488,1.768,0l3.564-3.564c0.422,0.199,0.854,0.378,1.292,0.536v5.04c0,0.69,0.56,1.25,1.25,1.25h2.9
		c0.874,5.072,3.469,9.687,7.388,13.095c0.04,0.124,0.155,0.702-0.341,2.429c-0.387,1.345-0.98,2.84-1.504,4.159
		c-0.351,0.883-0.653,1.645-0.836,2.221c-0.121,0.38-0.053,0.795,0.183,1.117c0.235,0.322,0.61,0.512,1.009,0.512h17.843
		c0.586,0,1.392-0.263,1.899-1.513c0.221-0.544,0.365-1.199,0.517-1.892c0.148-0.675,0.497-2.257,0.843-2.448
		c0,0,0.02-0.004,0.069,0.004c0.064,0.01,0.129,0.015,0.194,0.015c1.869,0,3.395,0.085,4.742,0.159
		c3.951,0.219,6.336,0.352,8.428-2.662c1.064-1.533,0.943-3.768,0.816-6.135c-0.066-1.22-0.133-2.479-0.013-3.525
		c0.218-0.215,0.765-0.59,1.107-0.825c1.178-0.809,2.291-1.573,2.291-2.735C114.5,92.059,113.966,90.895,113.095,89.067z
		 M67.312,82.57c-0.876-0.253-1.726-0.605-2.525-1.047c-0.488-0.27-1.094-0.184-1.489,0.21l-3.323,3.323l-3.562-3.562l3.323-3.323
		c0.394-0.394,0.48-1.001,0.21-1.488c-0.442-0.799-0.794-1.649-1.047-2.526c-0.154-0.535-0.644-0.903-1.201-0.903H53v-5.037h4.698
		c0.557,0,1.047-0.368,1.201-0.903c0.253-0.876,0.605-1.725,1.047-2.525c0.27-0.488,0.184-1.095-0.21-1.488l-3.323-3.323
		l3.562-3.562l3.323,3.323c0.394,0.394,1.001,0.48,1.488,0.21c0.8-0.442,1.65-0.794,2.525-1.047
		c0.535-0.154,0.904-0.644,0.904-1.201v-4.7h5.037v4.698c0,0.557,0.368,1.047,0.904,1.201c0.876,0.253,1.725,0.605,2.525,1.047
		c0.487,0.27,1.094,0.184,1.488-0.21l3.323-3.323l3.562,3.562l-3.323,3.323c-0.394,0.394-0.48,1.001-0.21,1.488
		c0.443,0.801,0.795,1.651,1.047,2.525c0.154,0.535,0.644,0.904,1.201,0.904h1.721c0.003,0,0.006,0,0.009,0h2.969v5.037h-4.699
		c-0.557,0-1.046,0.368-1.201,0.903c-0.253,0.876-0.605,1.726-1.047,2.525c-0.27,0.488-0.184,1.095,0.21,1.489l3.323,3.323
		l-3.562,3.562l-3.323-3.323c-0.394-0.394-1.001-0.48-1.489-0.21c-0.8,0.442-1.649,0.794-2.525,1.047
		c-0.535,0.154-0.904,0.644-0.904,1.201v4.698h-5.037V83.77C68.216,83.214,67.847,82.723,67.312,82.57z M110.794,93.618
		c-1.076,0.739-2.005,1.377-2.142,2.343c-0.188,1.324-0.109,2.788-0.033,4.203c0.095,1.756,0.202,3.746-0.373,4.575
		c-1.244,1.792-2.32,1.809-6.236,1.592c-1.292-0.072-2.896-0.161-4.797-0.163c-0.731-0.087-1.966,0.051-2.79,1.653
		c-0.419,0.814-0.644,1.836-0.842,2.739c-0.1,0.453-0.24,1.09-0.371,1.443H77.563c0.055-0.138,0.112-0.281,0.169-0.427
		c1.8-4.534,2.941-7.859,1.205-9.36c-3.396-2.937-5.682-6.889-6.53-11.245h2.096c0.69,0,1.25-0.56,1.25-1.25v-5.04
		c0.439-0.158,0.87-0.337,1.292-0.536l3.564,3.564c0.488,0.488,1.279,0.488,1.768,0l5.33-5.33c0.234-0.234,0.366-0.552,0.366-0.884
		c0-0.331-0.132-0.65-0.366-0.884l-3.564-3.564c0.199-0.422,0.378-0.854,0.536-1.292h5.04c0.69,0,1.25-0.56,1.25-1.25v-7.273
		c0.331-0.016,0.664-0.025,0.997-0.025c5.956,0,12.907,3.684,16.167,8.568c1.398,2.094,2.747,5.35,1.241,8.976
		c-0.49,1.181,0.237,2.819,1.464,5.393c0.397,0.833,0.972,2.039,1.125,2.603C111.705,92.992,111.149,93.373,110.794,93.618z"/>
	<path class="st2" d="M70.69,64.658h0.044c0.69,0,1.25-0.56,1.25-1.25s-0.56-1.25-1.25-1.25H70.69c-0.69,0-1.25,0.56-1.25,1.25
		S70,64.658,70.69,64.658z"/>
	<path class="st2" d="M66.82,75.382c-1.374-1.159-2.162-2.853-2.162-4.648c0-2.317,1.288-4.401,3.362-5.438
		c0.617-0.309,0.867-1.06,0.559-1.677c-0.309-0.617-1.06-0.868-1.677-0.559c-2.926,1.464-4.744,4.404-4.744,7.674
		c0,2.533,1.112,4.924,3.05,6.559c0.234,0.198,0.521,0.294,0.805,0.294c0.356,0,0.709-0.151,0.956-0.444
		C67.414,76.615,67.348,75.826,66.82,75.382z"/>
	<path class="st2" d="M75.56,70.735c0-2.661-2.165-4.826-4.826-4.826c-2.661,0-4.826,2.165-4.826,4.826
		c0,2.661,2.165,4.826,4.826,4.826S75.56,73.395,75.56,70.735z M68.408,70.735c0-1.283,1.044-2.326,2.326-2.326
		c1.283,0,2.326,1.043,2.326,2.326s-1.043,2.326-2.326,2.326S68.408,72.018,68.408,70.735z"/>
</g>
</svg>
