<?xml version="1.0" encoding="iso-8859-1"?>
<!-- Generator: Adobe Illustrator 21.0.1, SVG Export Plug-In . SVG Version: 6.00 Build 0)  -->
<svg version="1.1" id="Capa_1" xmlns="http://www.w3.org/2000/svg" xmlns:xlink="http://www.w3.org/1999/xlink" x="0px" y="0px"
	 viewBox="0 0 51.904 62.003" style="enable-background:new 0 0 51.904 62.003;" xml:space="preserve">
<g>
	<g>
		<path style="fill:#FFFFFF;" d="M46.017,40.577c-1.714-2.459-2.571-5.229-2.571-8.309c0-2.807,0.808-5.379,2.422-7.713
			c0.869-1.267,2.286-2.732,4.248-4.397c-1.292-1.589-2.583-2.831-3.876-3.726c-2.335-1.614-4.981-2.422-7.937-2.422
			c-1.763,0-3.913,0.422-6.446,1.267c-2.435,0.845-4.211,1.267-5.328,1.267c-0.845,0-2.559-0.372-5.142-1.118
			c-2.608-0.745-4.807-1.118-6.595-1.118c-4.273,0-7.8,1.789-10.582,5.365C1.404,23.301,0,27.946,0,33.61
			c0,6.011,1.826,12.258,5.478,18.742c3.701,6.434,7.44,9.651,11.215,9.651c1.267,0,2.906-0.422,4.918-1.267
			c2.012-0.819,3.776-1.23,5.291-1.23c1.614,0,3.49,0.397,5.626,1.192c2.26,0.794,4,1.192,5.217,1.192
			c3.179,0,6.372-2.435,9.576-7.303c2.086-3.105,3.614-6.21,4.583-9.315C49.693,44.601,47.731,43.036,46.017,40.577z"/>
		<path style="fill:#FFFFFF;" d="M33.348,11.774c1.565-1.565,2.72-3.279,3.466-5.142c0.72-1.863,1.079-3.552,1.079-5.068
			c0-0.099-0.005-0.223-0.019-0.373c-0.011-0.149-0.018-0.273-0.018-0.372c-0.025-0.075-0.056-0.211-0.093-0.41
			S37.695,0.075,37.67,0c-4.372,1.019-7.477,2.857-9.315,5.515c-1.862,2.683-2.832,5.875-2.906,9.576
			c1.664-0.149,2.956-0.36,3.875-0.633C30.666,14.01,32.006,13.116,33.348,11.774z"/>
	</g>
</g>
</svg>
