<?xml version="1.0" encoding="utf-8"?>
<!-- Generator: Adobe Illustrator 21.0.1, SVG Export Plug-In . SVG Version: 6.00 Build 0)  -->
<svg version="1.1" id="Слой_1" xmlns="http://www.w3.org/2000/svg" xmlns:xlink="http://www.w3.org/1999/xlink" x="0px" y="0px"
	 viewBox="0 0 1499 905" style="enable-background:new 0 0 1499 905;" xml:space="preserve">
<style type="text/css">
	.st0{fill:url(#SVGID_1_);}
	.st1{clip-path:url(#SVGID_7_);}
	.st2{opacity:0.05;clip-path:url(#SVGID_8_);}
	.st3{fill:#FFFFFF;}
	.st4{clip-path:url(#SVGID_11_);}
	.st5{opacity:0.05;clip-path:url(#SVGID_12_);}
	.st6{clip-path:url(#SVGID_15_);}
	.st7{opacity:0.05;clip-path:url(#SVGID_16_);}
	.st8{clip-path:url(#SVGID_19_);}
	.st9{opacity:0.05;clip-path:url(#SVGID_20_);}
	.st10{clip-path:url(#SVGID_23_);}
	.st11{opacity:0.05;clip-path:url(#SVGID_24_);}
	.st12{clip-path:url(#SVGID_27_);}
	.st13{opacity:0.05;clip-path:url(#SVGID_28_);}
</style>
<g>
	<g>
		
			<linearGradient id="SVGID_1_" gradientUnits="userSpaceOnUse" x1="0" y1="456.0301" x2="1470.5092" y2="456.0301" gradientTransform="matrix(1 0 0 -1 0 906)">
			<stop  offset="0" style="stop-color:#32B482"/>
			<stop  offset="1" style="stop-color:#1BDE92"/>
		</linearGradient>
		<path id="SVGID_2_" class="st0" d="M999.8,0H0v382c0,0,901.4,737.7,1351.7,452.3C1755.7,578.2,999.8,0,999.8,0z"/>
	</g>
	<g>
		<defs>
			<path id="SVGID_3_" d="M1079.8,0H0v466.2c0,0,913.9,651.7,1370.5,366.7C1780,577.2,1079.8,0,1079.8,0z"/>
		</defs>
		<clipPath id="SVGID_4_">
			<use xlink:href="#SVGID_3_"  style="overflow:visible;"/>
		</clipPath>
	</g>
	<g>
		<defs>
			<path id="SVGID_5_" d="M1079.8,0H0v466.2c0,0,913.9,651.7,1370.5,366.7C1780,577.2,1079.8,0,1079.8,0z"/>
		</defs>
		<defs>
			<path id="SVGID_6_" d="M999.8,0H0v382c0,0,901.4,737.7,1351.7,452.3C1755.7,578.2,999.8,0,999.8,0z"/>
		</defs>
		<clipPath id="SVGID_7_">
			<use xlink:href="#SVGID_5_"  style="overflow:visible;"/>
		</clipPath>
		<clipPath id="SVGID_8_" class="st1">
			<use xlink:href="#SVGID_6_"  style="overflow:visible;"/>
		</clipPath>
		<g class="st2">
			<path class="st3" d="M191.3,515.1h14.9v-66.5h-15.5v-17h34.1v83.5h13.8V531h-47.3L191.3,515.1L191.3,515.1z"/>
			<path class="st3" d="M243.7,515.1h14.9v-66.5h-15.5v-17h34.1v83.5H291V531h-47.3V515.1z"/>
			<path class="st3" d="M299.1,474.1c0-59.4,87.2-59.2,87.2,0v14.3c0,59.2-87.2,59.4-87.2,0L299.1,474.1L299.1,474.1z M317.7,488.4
				c0,36.1,50,36.1,50,0v-14.3c0-35.5-50-35.9-50,0V488.4z"/>
			<path class="st3" d="M394.9,515.1h14.9v-66.5h-15.5v-17h34.1v83.5h13.8V531h-47.3V515.1z"/>
			<path class="st3" d="M450.3,474.1c0-59.4,87.2-59.2,87.2,0v14.3c0,59.2-87.2,59.4-87.2,0V474.1z M468.9,488.4
				c0,36.1,50,36.1,50,0v-14.3c0-35.5-50-35.9-50,0L468.9,488.4L468.9,488.4z"/>
			<path class="st3" d="M546.1,515.1H561v-66.5h-15.5v-17h34.1v83.5h13.8V531h-47.3V515.1z"/>
			<path class="st3" d="M601.5,474.1c0-59.4,87.2-59.2,87.2,0v14.3c0,59.2-87.2,59.4-87.2,0V474.1z M620.1,488.4
				c0,36.1,50,36.1,50,0v-14.3c0-35.5-50-35.9-50,0V488.4z"/>
			<path class="st3" d="M700.3,474.1c0-59.4,87.2-59.2,87.2,0v14.3c0,59.2-87.2,59.4-87.2,0V474.1z M718.9,488.4
				c0,36.1,50,36.1,50,0v-14.3c0-35.5-50-35.9-50,0V488.4z"/>
			<path class="st3" d="M796.2,515.1h14.9v-66.5h-15.5v-17h34.1v83.5h13.8V531h-47.3V515.1z"/>
			<path class="st3" d="M851.6,474.1c0-59.4,87.2-59.2,87.2,0v14.3c0,59.2-87.2,59.4-87.2,0V474.1z M870.2,488.4
				c0,36.1,50,36.1,50,0v-14.3c0-35.5-50-35.9-50,0V488.4z"/>
		</g>
	</g>
	<g>
		<defs>
			<path id="SVGID_9_" d="M1079.8,0H0v466.2c0,0,913.9,651.7,1370.5,366.7C1780,577.2,1079.8,0,1079.8,0z"/>
		</defs>
		<defs>
			<path id="SVGID_10_" d="M999.8,0H0v382c0,0,901.4,737.7,1351.7,452.3C1755.7,578.2,999.8,0,999.8,0z"/>
		</defs>
		<clipPath id="SVGID_11_">
			<use xlink:href="#SVGID_9_"  style="overflow:visible;"/>
		</clipPath>
		<clipPath id="SVGID_12_" class="st4">
			<use xlink:href="#SVGID_10_"  style="overflow:visible;"/>
		</clipPath>
		<g class="st5">
			<path class="st3" d="M537.3,379.1h14.9v-66.5h-15.5v-17h34.1v83.5h13.8V395h-47.3V379.1z"/>
			<path class="st3" d="M589.7,379.1h14.9v-66.5h-15.5v-17h34.1v83.5H637V395h-47.3V379.1z"/>
			<path class="st3" d="M645.1,338.1c0-59.4,87.2-59.2,87.2,0v14.3c0,59.2-87.2,59.4-87.2,0V338.1z M663.7,352.4
				c0,36.1,50,36.1,50,0v-14.3c0-35.5-50-35.9-50,0V352.4z"/>
			<path class="st3" d="M740.9,379.1h14.9v-66.5h-15.5v-17h34.1v83.5h13.8V395h-47.3V379.1z"/>
			<path class="st3" d="M796.3,338.1c0-59.4,87.2-59.2,87.2,0v14.3c0,59.2-87.2,59.4-87.2,0V338.1z M814.9,352.4
				c0,36.1,50,36.1,50,0v-14.3c0-35.5-50-35.9-50,0V352.4z"/>
			<path class="st3" d="M892.1,379.1H907v-66.5h-15.5v-17h34.1v83.5h13.8V395h-47.3V379.1z"/>
			<path class="st3" d="M947.5,338.1c0-59.4,87.2-59.2,87.2,0v14.3c0,59.2-87.2,59.4-87.2,0L947.5,338.1L947.5,338.1z M966.1,352.4
				c0,36.1,50,36.1,50,0v-14.3c0-35.5-50-35.9-50,0V352.4z"/>
			<path class="st3" d="M1046.3,338.1c0-59.4,87.2-59.2,87.2,0v14.3c0,59.2-87.2,59.4-87.2,0V338.1z M1064.9,352.4
				c0,36.1,50,36.1,50,0v-14.3c0-35.5-50-35.9-50,0V352.4z"/>
			<path class="st3" d="M1142.2,379.1h14.9v-66.5h-15.5v-17h34.1v83.5h13.8V395h-47.3V379.1z"/>
			<path class="st3" d="M1197.6,338.1c0-59.4,87.2-59.2,87.2,0v14.3c0,59.2-87.2,59.4-87.2,0V338.1z M1216.2,352.4
				c0,36.1,50,36.1,50,0v-14.3c0-35.5-50-35.9-50,0V352.4z"/>
		</g>
	</g>
	<g>
		<defs>
			<path id="SVGID_13_" d="M1079.8,0H0v466.2c0,0,913.9,651.7,1370.5,366.7C1780,577.2,1079.8,0,1079.8,0z"/>
		</defs>
		<defs>
			<path id="SVGID_14_" d="M999.8,0H0v382c0,0,901.4,737.7,1351.7,452.3C1755.7,578.2,999.8,0,999.8,0z"/>
		</defs>
		<clipPath id="SVGID_15_">
			<use xlink:href="#SVGID_13_"  style="overflow:visible;"/>
		</clipPath>
		<clipPath id="SVGID_16_" class="st6">
			<use xlink:href="#SVGID_14_"  style="overflow:visible;"/>
		</clipPath>
		<g class="st7">
			<path class="st3" d="M208.8,657.1h14.9v-66.5h-15.5v-17h34.1v83.5h13.8V673h-47.3L208.8,657.1L208.8,657.1z"/>
			<path class="st3" d="M261.2,657.1h14.9v-66.5h-15.5v-17h34.1v83.5h13.8V673h-47.3V657.1z"/>
			<path class="st3" d="M316.6,616.1c0-59.4,87.2-59.2,87.2,0v14.3c0,59.2-87.2,59.4-87.2,0L316.6,616.1L316.6,616.1z M335.2,630.4
				c0,36.1,50,36.1,50,0v-14.3c0-35.5-50-35.9-50,0V630.4z"/>
			<path class="st3" d="M412.4,657.1h14.9v-66.5h-15.5v-17h34.1v83.5h13.8V673h-47.3V657.1z"/>
			<path class="st3" d="M467.8,616.1c0-59.4,87.2-59.2,87.2,0v14.3c0,59.2-87.2,59.4-87.2,0V616.1z M486.4,630.4
				c0,36.1,50,36.1,50,0v-14.3c0-35.5-50-35.9-50,0L486.4,630.4L486.4,630.4z"/>
			<path class="st3" d="M563.7,657.1h14.9v-66.5h-15.5v-17h34.1v83.5H611V673h-47.3V657.1z"/>
			<path class="st3" d="M619,616.1c0-59.4,87.2-59.2,87.2,0v14.3c0,59.2-87.2,59.4-87.2,0V616.1z M637.6,630.4c0,36.1,50,36.1,50,0
				v-14.3c0-35.5-50-35.9-50,0V630.4z"/>
			<path class="st3" d="M717.9,616.1c0-59.4,87.2-59.2,87.2,0v14.3c0,59.2-87.2,59.4-87.2,0V616.1z M736.5,630.4
				c0,36.1,50,36.1,50,0v-14.3c0-35.5-50-35.9-50,0V630.4z"/>
			<path class="st3" d="M813.7,657.1h14.9v-66.5h-15.5v-17h34.1v83.5H861V673h-47.3V657.1z"/>
			<path class="st3" d="M869.1,616.1c0-59.4,87.2-59.2,87.2,0v14.3c0,59.2-87.2,59.4-87.2,0V616.1z M887.7,630.4
				c0,36.1,50,36.1,50,0v-14.3c0-35.5-50-35.9-50,0V630.4z"/>
		</g>
	</g>
	<g>
		<defs>
			<path id="SVGID_17_" d="M1079.8,0H0v466.2c0,0,913.9,651.7,1370.5,366.7C1780,577.2,1079.8,0,1079.8,0z"/>
		</defs>
		<defs>
			<path id="SVGID_18_" d="M999.8,0H0v382c0,0,901.4,737.7,1351.7,452.3C1755.7,578.2,999.8,0,999.8,0z"/>
		</defs>
		<clipPath id="SVGID_19_">
			<use xlink:href="#SVGID_17_"  style="overflow:visible;"/>
		</clipPath>
		<clipPath id="SVGID_20_" class="st8">
			<use xlink:href="#SVGID_18_"  style="overflow:visible;"/>
		</clipPath>
		<g class="st9">
			<path class="st3" d="M564.8,127.1h14.9V60.6h-15.5v-17h34.1v83.5h13.8V143h-47.3V127.1z"/>
			<path class="st3" d="M617.2,127.1h14.9V60.6h-15.5v-17h34.1v83.5h13.8V143h-47.3V127.1z"/>
			<path class="st3" d="M672.6,86.1c0-59.4,87.2-59.2,87.2,0v14.3c0,59.2-87.2,59.4-87.2,0V86.1z M691.2,100.4c0,36.1,50,36.1,50,0
				V86.1c0-35.5-50-35.9-50,0V100.4z"/>
			<path class="st3" d="M768.4,127.1h14.9V60.6h-15.5v-17h34.1v83.5h13.8V143h-47.3V127.1z"/>
			<path class="st3" d="M823.8,86.1c0-59.4,87.2-59.2,87.2,0v14.3c0,59.2-87.2,59.4-87.2,0V86.1z M842.4,100.4c0,36.1,50,36.1,50,0
				V86.1c0-35.5-50-35.9-50,0V100.4z"/>
			<path class="st3" d="M919.7,127.1h14.9V60.6h-15.5v-17h34.1v83.5H967V143h-47.3V127.1z"/>
			<path class="st3" d="M975,86.1c0-59.4,87.2-59.2,87.2,0v14.3c0,59.2-87.2,59.4-87.2,0L975,86.1L975,86.1z M993.6,100.4
				c0,36.1,50,36.1,50,0V86.1c0-35.5-50-35.9-50,0V100.4z"/>
			<path class="st3" d="M1073.9,86.1c0-59.4,87.2-59.2,87.2,0v14.3c0,59.2-87.2,59.4-87.2,0V86.1z M1092.5,100.4
				c0,36.1,50,36.1,50,0V86.1c0-35.5-50-35.9-50,0V100.4z"/>
			<path class="st3" d="M1169.7,127.1h14.9V60.6h-15.5v-17h34.1v83.5h13.8V143h-47.3V127.1z"/>
			<path class="st3" d="M1225.1,86.1c0-59.4,87.2-59.2,87.2,0v14.3c0,59.2-87.2,59.4-87.2,0V86.1z M1243.7,100.4
				c0,36.1,50,36.1,50,0V86.1c0-35.5-50-35.9-50,0V100.4z"/>
		</g>
	</g>
	<g>
		<defs>
			<path id="SVGID_21_" d="M1079.8,0H0v466.2c0,0,913.9,651.7,1370.5,366.7C1780,577.2,1079.8,0,1079.8,0z"/>
		</defs>
		<defs>
			<path id="SVGID_22_" d="M999.8,0H0v382c0,0,901.4,737.7,1351.7,452.3C1755.7,578.2,999.8,0,999.8,0z"/>
		</defs>
		<clipPath id="SVGID_23_">
			<use xlink:href="#SVGID_21_"  style="overflow:visible;"/>
		</clipPath>
		<clipPath id="SVGID_24_" class="st10">
			<use xlink:href="#SVGID_22_"  style="overflow:visible;"/>
		</clipPath>
		<g class="st11">
			<path class="st3" d="M954.8,515.1h14.9v-66.5h-15.5v-17h34.1v83.5h13.8V531h-47.3V515.1z"/>
			<path class="st3" d="M1007.2,515.1h14.9v-66.5h-15.5v-17h34.1v83.5h13.8V531h-47.3L1007.2,515.1L1007.2,515.1z"/>
			<path class="st3" d="M1062.6,474.1c0-59.4,87.2-59.2,87.2,0v14.3c0,59.2-87.2,59.4-87.2,0V474.1z M1081.2,488.4
				c0,36.1,50,36.1,50,0v-14.3c0-35.5-50-35.9-50,0V488.4z"/>
			<path class="st3" d="M1158.4,515.1h14.9v-66.5h-15.5v-17h34.1v83.5h13.8V531h-47.3V515.1z"/>
			<path class="st3" d="M1213.8,474.1c0-59.4,87.2-59.2,87.2,0v14.3c0,59.2-87.2,59.4-87.2,0V474.1z M1232.4,488.4
				c0,36.1,50,36.1,50,0v-14.3c0-35.5-50-35.9-50,0V488.4z"/>
			<path class="st3" d="M1309.7,515.1h14.9v-66.5h-15.5v-17h34.1v83.5h13.8V531h-47.3V515.1z"/>
			<path class="st3" d="M1365,474.1c0-59.4,87.2-59.2,87.2,0v14.3c0,59.2-87.2,59.4-87.2,0V474.1z M1383.6,488.4
				c0,36.1,50,36.1,50,0v-14.3c0-35.5-50-35.9-50,0V488.4z"/>
			<path class="st3" d="M1463.9,474.1c0-59.4,87.2-59.2,87.2,0v14.3c0,59.2-87.2,59.4-87.2,0V474.1z M1482.5,488.4
				c0,36.1,50,36.1,50,0v-14.3c0-35.5-50-35.9-50,0V488.4z"/>
			<path class="st3" d="M1559.7,515.1h14.9v-66.5h-15.5v-17h34.1v83.5h13.8V531h-47.3V515.1z"/>
			<path class="st3" d="M1615.1,474.1c0-59.4,87.2-59.2,87.2,0v14.3c0,59.2-87.2,59.4-87.2,0V474.1z M1633.7,488.4
				c0,36.1,50,36.1,50,0v-14.3c0-35.5-50-35.9-50,0V488.4z"/>
		</g>
	</g>
	<g>
		<defs>
			<path id="SVGID_25_" d="M1079.8,0H0v466.2c0,0,913.9,651.7,1370.5,366.7C1780,577.2,1079.8,0,1079.8,0z"/>
		</defs>
		<defs>
			<path id="SVGID_26_" d="M999.8,0H0v382c0,0,901.4,737.7,1351.7,452.3C1755.7,578.2,999.8,0,999.8,0z"/>
		</defs>
		<clipPath id="SVGID_27_">
			<use xlink:href="#SVGID_25_"  style="overflow:visible;"/>
		</clipPath>
		<clipPath id="SVGID_28_" class="st12">
			<use xlink:href="#SVGID_26_"  style="overflow:visible;"/>
		</clipPath>
		<g class="st13">
			<path class="st3" d="M753.3,251.1h14.9v-66.5h-15.5v-17h34.1v83.5h13.8V267h-47.3V251.1z"/>
			<path class="st3" d="M805.7,251.1h14.9v-66.5h-15.5v-17h34.1v83.5H853V267h-47.3V251.1z"/>
			<path class="st3" d="M861.1,210.1c0-59.4,87.2-59.2,87.2,0v14.3c0,59.2-87.2,59.4-87.2,0V210.1z M879.7,224.4
				c0,36.1,50,36.1,50,0v-14.3c0-35.5-50-35.9-50,0V224.4z"/>
			<path class="st3" d="M956.9,251.1h14.9v-66.5h-15.5v-17h34.1v83.5h13.8V267h-47.3V251.1z"/>
			<path class="st3" d="M1012.3,210.1c0-59.4,87.2-59.2,87.2,0v14.3c0,59.2-87.2,59.4-87.2,0V210.1z M1030.9,224.4
				c0,36.1,50,36.1,50,0v-14.3c0-35.5-50-35.9-50,0V224.4z"/>
			<path class="st3" d="M1108.1,251.1h14.9v-66.5h-15.5v-17h34.1v83.5h13.8V267h-47.3V251.1z"/>
			<path class="st3" d="M1163.5,210.1c0-59.4,87.2-59.2,87.2,0v14.3c0,59.2-87.2,59.4-87.2,0V210.1z M1182.1,224.4
				c0,36.1,50,36.1,50,0v-14.3c0-35.5-50-35.9-50,0V224.4z"/>
			<path class="st3" d="M1262.3,210.1c0-59.4,87.2-59.2,87.2,0v14.3c0,59.2-87.2,59.4-87.2,0V210.1z M1280.9,224.4
				c0,36.1,50,36.1,50,0v-14.3c0-35.5-50-35.9-50,0V224.4z"/>
			<path class="st3" d="M1358.2,251.1h14.9v-66.5h-15.5v-17h34.1v83.5h13.8V267h-47.3V251.1z"/>
			<path class="st3" d="M1413.6,210.1c0-59.4,87.2-59.2,87.2,0v14.3c0,59.2-87.2,59.4-87.2,0V210.1z M1432.2,224.4
				c0,36.1,50,36.1,50,0v-14.3c0-35.5-50-35.9-50,0V224.4z"/>
		</g>
	</g>
</g>
</svg>
