<?xml version="1.0" encoding="utf-8"?>
<!-- Generator: Adobe Illustrator 21.0.1, SVG Export Plug-In . SVG Version: 6.00 Build 0)  -->
<svg version="1.1" id="Layer_1" xmlns="http://www.w3.org/2000/svg" xmlns:xlink="http://www.w3.org/1999/xlink" x="0px" y="0px"
	 viewBox="0 0 64 48.7" style="enable-background:new 0 0 64 48.7;" xml:space="preserve">
<style type="text/css">
	.st0{fill:#FFFFFF;}
</style>
<g>
	<g>
		<path class="st0" d="M61.9,0H2.1C0.9,0,0,0.9,0,2.1v10.4h64V2.1C64,0.9,63.1,0,61.9,0z M40.3,9c-1.5,0-2.8-1.2-2.8-2.8
			s1.2-2.8,2.8-2.8s2.8,1.2,2.8,2.8C43.1,7.8,41.8,9,40.3,9z M47.9,9c-1.5,0-2.8-1.2-2.8-2.8s1.2-2.8,2.8-2.8s2.8,1.2,2.8,2.8
			C50.6,7.8,49.4,9,47.9,9z M55.4,9c-1.5,0-2.8-1.2-2.8-2.8s1.2-2.8,2.8-2.8s2.8,1.2,2.8,2.8C58.2,7.8,57,9,55.4,9z"/>
	</g>
</g>
<g>
	<g>
		<path class="st0" d="M0,16.7v30c0,1.2,0.9,2.1,2.1,2.1h59.8c1.2,0,2.1-0.9,2.1-2.1v-30H0z M29.4,34.3l-6.8,5.8
			c-0.9,0.7-2.2,0.6-2.9-0.2c-0.7-0.9-0.6-2.2,0.2-2.9l5-4.2l-5-4.2c-0.9-0.7-1-2.1-0.2-2.9c0.7-0.9,2.1-1,2.9-0.2l6.8,5.8
			C30.4,31.9,30.4,33.4,29.4,34.3z M42.8,40.6h-8.2c-1.2,0-2.1-0.9-2.1-2.1s0.9-2.1,2.1-2.1h8.2c1.2,0,2.1,0.9,2.1,2.1
			S43.9,40.6,42.8,40.6z"/>
	</g>
</g>
</svg>
