<?xml version="1.0" encoding="utf-8"?>
<!-- Generator: Adobe Illustrator 21.0.1, SVG Export Plug-In . SVG Version: 6.00 Build 0)  -->
<svg version="1.1" id="Слой_1" xmlns="http://www.w3.org/2000/svg" xmlns:xlink="http://www.w3.org/1999/xlink" x="0px" y="0px"
	 viewBox="0 0 165 165" style="enable-background:new 0 0 165 165;" xml:space="preserve">
<style type="text/css">
	.st0{fill:none;stroke:#FFFFFF;stroke-linecap:round;stroke-linejoin:round;stroke-dasharray:0,0,0,19.9378;}
	.st1{fill:#FFFFFF;}
	.st2{fill:#32B482;}
</style>
<g>
	<circle class="st0" cx="82.5" cy="82.5" r="82.5"/>
</g>
<circle class="st1" cx="82.5" cy="82.5" r="52.5"/>
<g>
	<g>
		<g>
			<path class="st2" d="M89.7,65.75h-2.5c-0.3-1.1-0.8-2.1-1.3-3.1l1.7-1.7c0.5-0.5,0.5-1.3,0-1.8l-5.3-5.3
				c-0.2-0.3-0.5-0.4-0.8-0.4c-0.3,0-0.6,0.1-0.9,0.4l-1.7,1.7c-1-0.5-2-1-3.1-1.3v-2.5c0-0.6-0.6-1.2-1.3-1.2H67
				c-0.7,0-1.2,0.6-1.2,1.2v2.5c-1.2,0.3-2.2,0.8-3.2,1.3l-1.7-1.7c-0.3-0.3-0.6-0.4-0.9-0.4c-0.4,0-0.7,0.1-0.9,0.4l-5.3,5.3
				c-0.5,0.5-0.5,1.3,0,1.8l1.7,1.7c-0.5,1-1,2-1.3,3.1h-2.5c-0.7,0-1.2,0.6-1.2,1.2v7.6c0,0.7,0.6,1.2,1.2,1.2h2.5
				c0.3,1.1,0.8,2.2,1.3,3.2l-1.7,1.7c-0.3,0.2-0.4,0.6-0.4,0.9c0,0.3,0.1,0.6,0.4,0.9l5.3,5.3c0.2,0.2,0.6,0.4,0.9,0.4
				s0.6-0.1,0.9-0.4l1.7-1.7c1,0.5,2,1,3.1,1.3v2.5c0,0.7,0.6,1.2,1.2,1.2h7.6c0.7,0,1.2-0.6,1.2-1.2v-2.5c1.1-0.3,2.1-0.8,3.1-1.3
				l1.7,1.7c0.2,0.2,0.6,0.4,0.9,0.4c0.3,0,0.6-0.1,0.9-0.4l5.3-5.3c0.5-0.5,0.5-1.3,0-1.8l-1.7-1.7c0.5-1,1-2,1.3-3.1h2.5
				c0.7,0,1.2-0.6,1.2-1.2v-7.5C91,66.35,90.4,65.75,89.7,65.75z M88.5,73.35h-2.2c-0.6,0-1.1,0.4-1.2,1c-0.4,1.5-0.9,2.9-1.7,4.2
				c-0.3,0.5-0.2,1.1,0.2,1.5l1.5,1.5l-3.6,3.6l-1.5-1.6c-0.4-0.4-1-0.5-1.5-0.2c-1.3,0.8-2.7,1.4-4.2,1.7c-0.6,0.1-1,0.6-1,1.2v2.3
				h-5v-2.2c0-0.6-0.4-1.1-1-1.2c-1.5-0.4-2.9-0.9-4.2-1.7c-0.6-0.4-1.2-0.3-1.6,0.1l-1.5,1.5l-3.6-3.5l1.5-1.5
				c0.4-0.4,0.5-1,0.2-1.5c-0.8-1.3-1.4-2.7-1.7-4.2c-0.1-0.6-0.6-1-1.2-1H53v-5h2.2c0.6,0,1.1-0.4,1.2-1c0.4-1.5,0.9-2.9,1.7-4.2
				c0.3-0.6,0.3-1.2-0.2-1.6l-1.5-1.5l3.6-3.6l1.5,1.5c0.4,0.4,1,0.5,1.5,0.2c1.3-0.8,2.7-1.4,4.2-1.7c0.6-0.1,1-0.6,1-1.2v-2.2h5
				v2.2c0,0.6,0.4,1.1,1,1.2c1.5,0.4,2.9,0.9,4.2,1.7c0.5,0.3,1.1,0.2,1.5-0.2l1.6-1.5l3.6,3.6l-1.6,1.5c-0.4,0.4-0.5,1-0.2,1.5
				c0.8,1.3,1.4,2.7,1.7,4.2c0.1,0.6,0.6,1,1.2,1h2.3V73.35L88.5,73.35z"/>
		</g>
	</g>
	<g>
		<g>
			<path class="st2" d="M71.4,59.95L71.4,59.95c-0.7,0-1.3,0.6-1.3,1.2c0,0.7,0.6,1.2,1.2,1.2h0.1c0.7,0,1.2-0.6,1.2-1.2
				C72.6,60.45,72.1,59.95,71.4,59.95z"/>
		</g>
	</g>
	<g>
		<g>
			<path class="st2" d="M68.1,61.65c-0.3-0.6-1.1-0.9-1.7-0.6c-3.8,1.9-6.2,5.7-6.2,10c0,3.3,1.4,6.4,4,8.5c0.2,0.2,0.5,0.3,0.8,0.3
				c0.4,0,0.7-0.2,1-0.4c0.4-0.5,0.4-1.3-0.1-1.8c-2-1.7-3.1-4.1-3.1-6.6c0-3.3,1.8-6.3,4.8-7.8C68.1,63.05,68.4,62.25,68.1,61.65z"
				/>
		</g>
	</g>
	<g>
		<g>
			<path class="st2" d="M71.4,64.95c-3.4,0-6.1,2.7-6.1,6.1c0,3.4,2.7,6.1,6.1,6.1c3.4,0,6.1-2.7,6.1-6.1
				C77.5,67.65,74.8,64.95,71.4,64.95z M71.4,74.65c-2,0-3.6-1.6-3.6-3.6s1.6-3.6,3.6-3.6s3.6,1.6,3.6,3.6S73.4,74.65,71.4,74.65z"
				/>
		</g>
	</g>
	<g>
		<g>
			<path class="st2" d="M114.3,97.85c-0.2-0.3-0.5-0.5-0.8-0.6l-1.7-0.4c-0.1-0.8-0.2-1.5-0.4-2.3l1.5-0.9c0.6-0.4,0.8-1.1,0.4-1.7
				l-3.1-5c-0.4-0.6-1.1-0.8-1.7-0.4l-1.5,0.9c-0.6-0.5-1.2-1-1.9-1.4l0.4-1.7c0.1-0.3,0-0.7-0.2-0.9c-0.2-0.3-0.5-0.5-0.8-0.6
				l-5.8-1.3c-0.3-0.1-0.7,0-0.9,0.2c-0.3,0.2-0.5,0.5-0.6,0.8l-0.4,1.7c-0.8,0.1-1.5,0.2-2.3,0.4l-0.9-1.5
				c-0.2-0.3-0.5-0.5-0.8-0.6s-0.7,0-0.9,0.2l-5,3.1c-0.3,0.2-0.5,0.5-0.6,0.8c-0.1,0.3,0,0.7,0.2,0.9l0.9,1.5
				c-0.5,0.6-1,1.2-1.4,1.9l-1.7-0.4c-0.3-0.1-0.7,0-0.9,0.2c-0.3,0.2-0.5,0.5-0.6,0.8l-1.3,5.7c-0.1,0.3,0,0.7,0.2,0.9
				c0.2,0.3,0.5,0.5,0.8,0.6l1.7,0.4c0.1,0.8,0.2,1.5,0.4,2.3l-1.5,0.9c-0.6,0.4-0.8,1.1-0.4,1.7l3.1,5c0.2,0.3,0.5,0.5,0.8,0.6
				c0.3,0.1,0.7,0,0.9-0.2l1.5-0.9c0.6,0.5,1.2,1,1.9,1.4l-0.4,1.7c-0.2,0.7,0.3,1.3,0.9,1.5l5.8,1.3c0.1,0,0.2,0,0.3,0
				c0.2,0,0.5-0.1,0.7-0.2c0.3-0.2,0.5-0.5,0.6-0.8l0.4-1.7c0.8-0.1,1.5-0.2,2.3-0.4l0.9,1.5c0.2,0.3,0.5,0.5,0.8,0.6s0.7,0,0.9-0.2
				l5-3.1c0.6-0.4,0.8-1.1,0.4-1.7l-0.9-1.5c0.5-0.6,1-1.2,1.4-1.9l1.7,0.4c0.7,0.2,1.3-0.3,1.5-0.9l1.3-5.8
				C114.5,98.45,114.5,98.15,114.3,97.85z M111,102.85l-1.4-0.3c-0.6-0.1-1.1,0.1-1.4,0.7c-0.5,1.1-1.2,2-2,2.9
				c-0.4,0.4-0.5,1-0.2,1.5l0.8,1.2l-3,1.7l-0.8-1.2c-0.3-0.5-0.9-0.7-1.5-0.5c-1.1,0.4-2.3,0.6-3.5,0.6c-0.6,0-1.1,0.4-1.2,1
				l-0.3,1.4l-3.4-0.8l0.3-1.4c0.1-0.6-0.1-1.1-0.7-1.4c-1.1-0.5-2-1.2-2.9-2c-0.4-0.4-1-0.5-1.5-0.2l-1.2,0.8l-1.8-2.9l1.2-0.8
				c0.5-0.3,0.7-0.9,0.5-1.5c-0.4-1.1-0.6-2.3-0.6-3.5c0-0.6-0.4-1.1-1-1.2l-1.4-0.3l0.8-3.4l1.4,0.3c0.6,0.1,1.1-0.1,1.4-0.7
				c0.5-1.1,1.2-2,2-2.9c0.4-0.4,0.5-1,0.2-1.5l-0.8-1.2l2.9-1.8l0.8,1.2c0.3,0.5,0.9,0.7,1.5,0.5c1.1-0.4,2.3-0.6,3.5-0.6
				c0.6,0,1.1-0.4,1.2-1l0.3-1.4l3.4,0.8l-0.3,1.4c-0.1,0.6,0.1,1.1,0.7,1.4c1.1,0.5,2,1.2,2.9,2c0.4,0.4,1,0.5,1.5,0.2l1.2-0.8
				l1.8,2.9l-1.2,0.8c-0.5,0.3-0.7,0.9-0.5,1.5c0.4,1.1,0.6,2.3,0.6,3.5c0,0.6,0.4,1.1,1,1.2l1.4,0.3L111,102.85z"/>
		</g>
	</g>
	<g>
		<g>
			<path class="st2" d="M100.5,89.55C100.5,89.55,100.4,89.55,100.5,89.55c-0.8-0.2-1.4,0.3-1.6,0.9c-0.1,0.7,0.3,1.3,1,1.5
				c0.1,0,0.2,0,0.3,0c0.6,0,1.1-0.4,1.2-1C101.6,90.35,101.2,89.75,100.5,89.55z"/>
		</g>
	</g>
	<g>
		<g>
			<path class="st2" d="M97.8,90.45c-0.2-0.7-0.8-1.1-1.5-0.9c-3.4,0.8-5.9,3.4-6.7,6.8c-0.6,2.6,0,5.3,1.6,7.5
				c0.2,0.3,0.6,0.5,1,0.5c0.3,0,0.5-0.1,0.7-0.2c0.6-0.4,0.7-1.2,0.3-1.7c-1.2-1.6-1.6-3.5-1.1-5.4c0.6-2.4,2.4-4.3,4.9-4.9
				C97.6,91.85,98,91.15,97.8,90.45z"/>
		</g>
	</g>
	<g>
		<g>
			<path class="st2" d="M99.6,93.45c-0.4-0.1-0.8-0.1-1.1-0.1c-2.4,0-4.4,1.6-4.9,3.9c-0.3,1.3-0.1,2.7,0.6,3.8s1.8,2,3.2,2.3
				c0.4,0.1,0.8,0.1,1.1,0.1c2.4,0,4.4-1.6,4.9-3.9C104,96.85,102.3,94.05,99.6,93.45z M100.9,98.95c-0.3,1.2-1.3,2-2.5,2
				c-0.2,0-0.4,0-0.6-0.1c-0.7-0.2-1.2-0.6-1.6-1.1c-0.4-0.6-0.5-1.3-0.3-1.9c0.3-1.2,1.3-2,2.5-2c0.2,0,0.4,0,0.6,0.1
				C100.4,96.25,101.3,97.55,100.9,98.95z"/>
		</g>
	</g>
	<g>
		<g>
			<path class="st2" d="M74.8,94.65c-0.1-0.7-0.8-1.1-1.5-1c-4.2,0.8-10.1,0.1-12.4-1.5c-0.6-0.4-1.4-0.2-1.7,0.4
				c-0.4,0.6-0.2,1.4,0.4,1.7c2.1,1.4,6.1,2.2,10,2.2c1.5,0,2.9-0.1,4.3-0.4C74.5,95.95,74.9,95.35,74.8,94.65z"/>
		</g>
	</g>
	<g>
		<g>
			<path class="st2" d="M78.4,92.95c-0.3-0.6-1.1-0.8-1.7-0.5c-0.1,0-0.2,0.1-0.2,0.1c-0.6,0.3-0.8,1.1-0.5,1.7
				c0.2,0.4,0.7,0.7,1.1,0.7c0.2,0,0.4,0,0.6-0.1c0.1-0.1,0.2-0.1,0.3-0.2C78.6,94.35,78.8,93.55,78.4,92.95z"/>
		</g>
	</g>
	<g>
		<g>
			<path class="st2" d="M105.9,77.75c-3.6-1.5-8.4-1.7-11.1-0.5c-0.6,0.3-0.9,1-0.6,1.6c0.3,0.6,1,0.9,1.6,0.6
				c1.8-0.8,5.9-0.8,9.1,0.6c0.2,0.1,0.3,0.1,0.5,0.1c0.5,0,1-0.3,1.2-0.8C106.9,78.75,106.6,77.95,105.9,77.75z"/>
		</g>
	</g>
	<g>
		<g>
			<path class="st2" d="M109.4,79.65c-0.1-0.1-0.1-0.1-0.2-0.1c-0.5-0.4-1.3-0.3-1.8,0.2c-0.4,0.5-0.3,1.3,0.2,1.8l0.1,0.1
				c0.2,0.2,0.5,0.3,0.8,0.3c0.4,0,0.7-0.2,1-0.5C110,80.85,109.9,80.05,109.4,79.65z"/>
		</g>
	</g>
</g>
</svg>
