<?xml version="1.0" encoding="utf-8"?>
<!-- Generator: Adobe Illustrator 21.0.1, SVG Export Plug-In . SVG Version: 6.00 Build 0)  -->
<svg version="1.1" id="Capa_1" xmlns="http://www.w3.org/2000/svg" xmlns:xlink="http://www.w3.org/1999/xlink" x="0px" y="0px"
	 viewBox="0 0 64 64" style="enable-background:new 0 0 64 64;" xml:space="preserve">
<style type="text/css">
	.st0{fill:#FFFFFF;}
</style>
<g>
	<g>
		<path class="st0" d="M39.2,15.2h-2.5c-0.3-1.1-0.8-2.1-1.3-3.1l1.7-1.7c0.5-0.5,0.5-1.3,0-1.8l-5.3-5.3C31.6,3,31.3,2.9,31,2.9
			c-0.3,0-0.6,0.1-0.9,0.4L28.4,5c-1-0.5-2-1-3.1-1.3V1.2C25.3,0.6,24.7,0,24,0h-7.5c-0.7,0-1.2,0.6-1.2,1.2v2.5
			C14.1,4,13.1,4.5,12.1,5l-1.7-1.7C10.1,3,9.8,2.9,9.5,2.9C9.1,2.9,8.8,3,8.6,3.3L3.3,8.6c-0.5,0.5-0.5,1.3,0,1.8L5,12.1
			c-0.5,1-1,2-1.3,3.1H1.2c-0.7,0-1.2,0.6-1.2,1.2V24c0,0.7,0.6,1.2,1.2,1.2h2.5C4,26.3,4.5,27.4,5,28.4l-1.7,1.7
			C3,30.3,2.9,30.7,2.9,31c0,0.3,0.1,0.6,0.4,0.9l5.3,5.3c0.2,0.2,0.6,0.4,0.9,0.4c0.3,0,0.6-0.1,0.9-0.4l1.7-1.7c1,0.5,2,1,3.1,1.3
			v2.5c0,0.7,0.6,1.2,1.2,1.2H24c0.7,0,1.2-0.6,1.2-1.2v-2.5c1.1-0.3,2.1-0.8,3.1-1.3l1.7,1.7c0.2,0.2,0.6,0.4,0.9,0.4
			c0.3,0,0.6-0.1,0.9-0.4l5.3-5.3c0.5-0.5,0.5-1.3,0-1.8l-1.7-1.7c0.5-1,1-2,1.3-3.1h2.5c0.7,0,1.2-0.6,1.2-1.2v-7.5
			C40.5,15.8,39.9,15.2,39.2,15.2z M38,22.8h-2.2c-0.6,0-1.1,0.4-1.2,1c-0.4,1.5-0.9,2.9-1.7,4.2c-0.3,0.5-0.2,1.1,0.2,1.5l1.5,1.5
			L31,34.6L29.5,33c-0.4-0.4-1-0.5-1.5-0.2c-1.3,0.8-2.7,1.4-4.2,1.7c-0.6,0.1-1,0.6-1,1.2V38h-5v-2.2c0-0.6-0.4-1.1-1-1.2
			c-1.5-0.4-2.9-0.9-4.2-1.7C12,32.5,11.4,32.6,11,33l-1.5,1.5L5.9,31l1.5-1.5c0.4-0.4,0.5-1,0.2-1.5c-0.8-1.3-1.4-2.7-1.7-4.2
			c-0.1-0.6-0.6-1-1.2-1H2.5v-5h2.2c0.6,0,1.1-0.4,1.2-1c0.4-1.5,0.9-2.9,1.7-4.2C7.9,12,7.9,11.4,7.4,11L5.9,9.5l3.6-3.6L11,7.4
			c0.4,0.4,1,0.5,1.5,0.2c1.3-0.8,2.7-1.4,4.2-1.7c0.6-0.1,1-0.6,1-1.2V2.5h5v2.2c0,0.6,0.4,1.1,1,1.2c1.5,0.4,2.9,0.9,4.2,1.7
			c0.5,0.3,1.1,0.2,1.5-0.2L31,5.9l3.6,3.6L33,11c-0.4,0.4-0.5,1-0.2,1.5c0.8,1.3,1.4,2.7,1.7,4.2c0.1,0.6,0.6,1,1.2,1H38L38,22.8
			L38,22.8z"/>
	</g>
</g>
<g>
	<g>
		<path class="st0" d="M20.9,9.4L20.9,9.4c-0.7,0-1.3,0.6-1.3,1.2c0,0.7,0.6,1.2,1.2,1.2h0.1c0.7,0,1.2-0.6,1.2-1.2
			C22.1,9.9,21.6,9.4,20.9,9.4z"/>
	</g>
</g>
<g>
	<g>
		<path class="st0" d="M17.6,11.1c-0.3-0.6-1.1-0.9-1.7-0.6c-3.8,1.9-6.2,5.7-6.2,10c0,3.3,1.4,6.4,4,8.5c0.2,0.2,0.5,0.3,0.8,0.3
			c0.4,0,0.7-0.2,1-0.4c0.4-0.5,0.4-1.3-0.1-1.8c-2-1.7-3.1-4.1-3.1-6.6c0-3.3,1.8-6.3,4.8-7.8C17.6,12.5,17.9,11.7,17.6,11.1z"/>
	</g>
</g>
<g>
	<g>
		<path class="st0" d="M20.9,14.4c-3.4,0-6.1,2.7-6.1,6.1s2.7,6.1,6.1,6.1c3.4,0,6.1-2.7,6.1-6.1S24.3,14.4,20.9,14.4z M20.9,24.1
			c-2,0-3.6-1.6-3.6-3.6c0-2,1.6-3.6,3.6-3.6s3.6,1.6,3.6,3.6C24.5,22.5,22.9,24.1,20.9,24.1z"/>
	</g>
</g>
<g>
	<g>
		<path class="st0" d="M63.8,47.3c-0.2-0.3-0.5-0.5-0.8-0.6l-1.7-0.4c-0.1-0.8-0.2-1.5-0.4-2.3l1.5-0.9c0.6-0.4,0.8-1.1,0.4-1.7
			l-3.1-5c-0.4-0.6-1.1-0.8-1.7-0.4l-1.5,0.9c-0.6-0.5-1.2-1-1.9-1.4l0.4-1.7c0.1-0.3,0-0.7-0.2-0.9c-0.2-0.3-0.5-0.5-0.8-0.6
			L48.2,31c-0.3-0.1-0.7,0-0.9,0.2c-0.3,0.2-0.5,0.5-0.6,0.8l-0.4,1.7c-0.8,0.1-1.5,0.2-2.3,0.4l-0.9-1.5c-0.2-0.3-0.5-0.5-0.8-0.6
			c-0.3-0.1-0.7,0-0.9,0.2l-5,3.1c-0.3,0.2-0.5,0.5-0.6,0.8c-0.1,0.3,0,0.7,0.2,0.9l0.9,1.5c-0.5,0.6-1,1.2-1.4,1.9L33.8,40
			c-0.3-0.1-0.7,0-0.9,0.2c-0.3,0.2-0.5,0.5-0.6,0.8L31,46.7c-0.1,0.3,0,0.7,0.2,0.9c0.2,0.3,0.5,0.5,0.8,0.6l1.7,0.4
			c0.1,0.8,0.2,1.5,0.4,2.3l-1.5,0.9c-0.6,0.4-0.8,1.1-0.4,1.7l3.1,5c0.2,0.3,0.5,0.5,0.8,0.6c0.3,0.1,0.7,0,0.9-0.2l1.5-0.9
			c0.6,0.5,1.2,1,1.9,1.4L40,61.1c-0.2,0.7,0.3,1.3,0.9,1.5l5.8,1.3c0.1,0,0.2,0,0.3,0c0.2,0,0.5-0.1,0.7-0.2
			c0.3-0.2,0.5-0.5,0.6-0.8l0.4-1.7c0.8-0.1,1.5-0.2,2.3-0.4l0.9,1.5c0.2,0.3,0.5,0.5,0.8,0.6c0.3,0.1,0.7,0,0.9-0.2l5-3.1
			c0.6-0.4,0.8-1.1,0.4-1.7l-0.9-1.5c0.5-0.6,1-1.2,1.4-1.9l1.7,0.4c0.7,0.2,1.3-0.3,1.5-0.9l1.3-5.8C64,47.9,64,47.6,63.8,47.3z
			 M60.5,52.3l-1.4-0.3c-0.6-0.1-1.1,0.1-1.4,0.7c-0.5,1.1-1.2,2-2,2.9c-0.4,0.4-0.5,1-0.2,1.5l0.8,1.2L53.3,60l-0.8-1.2
			c-0.3-0.5-0.9-0.7-1.5-0.5c-1.1,0.4-2.3,0.6-3.5,0.6c-0.6,0-1.1,0.4-1.2,1l-0.3,1.4l-3.4-0.8l0.3-1.4c0.1-0.6-0.1-1.1-0.7-1.4
			c-1.1-0.5-2-1.2-2.9-2c-0.4-0.4-1-0.5-1.5-0.2l-1.2,0.8l-1.8-2.9l1.2-0.8c0.5-0.3,0.7-0.9,0.5-1.5c-0.4-1.1-0.6-2.3-0.6-3.5
			c0-0.6-0.4-1.1-1-1.2l-1.4-0.3l0.8-3.4l1.4,0.3c0.6,0.1,1.1-0.1,1.4-0.7c0.5-1.1,1.2-2,2-2.9c0.4-0.4,0.5-1,0.2-1.5l-0.8-1.2
			l2.9-1.8l0.8,1.2c0.3,0.5,0.9,0.7,1.5,0.5c1.1-0.4,2.3-0.6,3.5-0.6c0.6,0,1.1-0.4,1.2-1l0.3-1.4l3.4,0.8l-0.3,1.4
			c-0.1,0.6,0.1,1.1,0.7,1.4c1.1,0.5,2,1.2,2.9,2c0.4,0.4,1,0.5,1.5,0.2l1.2-0.8l1.8,2.9l-1.2,0.8c-0.5,0.3-0.7,0.9-0.5,1.5
			c0.4,1.1,0.6,2.3,0.6,3.5c0,0.6,0.4,1.1,1,1.2l1.4,0.3L60.5,52.3z"/>
	</g>
</g>
<g>
	<g>
		<path class="st0" d="M50,39C50,39,49.9,39,50,39c-0.8-0.2-1.4,0.3-1.6,0.9c-0.1,0.7,0.3,1.3,1,1.5c0.1,0,0.2,0,0.3,0
			c0.6,0,1.1-0.4,1.2-1C51.1,39.8,50.7,39.2,50,39z"/>
	</g>
</g>
<g>
	<g>
		<path class="st0" d="M47.3,39.9c-0.2-0.7-0.8-1.1-1.5-0.9c-3.4,0.8-5.9,3.4-6.7,6.8c-0.6,2.6,0,5.3,1.6,7.5c0.2,0.3,0.6,0.5,1,0.5
			c0.3,0,0.5-0.1,0.7-0.2c0.6-0.4,0.7-1.2,0.3-1.7c-1.2-1.6-1.6-3.5-1.1-5.4c0.6-2.4,2.4-4.3,4.9-4.9C47.1,41.3,47.5,40.6,47.3,39.9
			z"/>
	</g>
</g>
<g>
	<g>
		<path class="st0" d="M49.1,42.9c-0.4-0.1-0.8-0.1-1.1-0.1c-2.4,0-4.4,1.6-4.9,3.9c-0.3,1.3-0.1,2.7,0.6,3.8c0.7,1.1,1.8,2,3.2,2.3
			c0.4,0.1,0.8,0.1,1.1,0.1c2.4,0,4.4-1.6,4.9-3.9C53.5,46.3,51.8,43.5,49.1,42.9z M50.4,48.4c-0.3,1.2-1.3,2-2.5,2
			c-0.2,0-0.4,0-0.6-0.1c-0.7-0.2-1.2-0.6-1.6-1.1c-0.4-0.6-0.5-1.3-0.3-1.9c0.3-1.2,1.3-2,2.5-2c0.2,0,0.4,0,0.6,0.1
			C49.9,45.7,50.8,47,50.4,48.4z"/>
	</g>
</g>
<g>
	<g>
		<path class="st0" d="M24.3,44.1c-0.1-0.7-0.8-1.1-1.5-1c-4.2,0.8-10.1,0.1-12.4-1.5c-0.6-0.4-1.4-0.2-1.7,0.4
			c-0.4,0.6-0.2,1.4,0.4,1.7c2.1,1.4,6.1,2.2,10,2.2c1.5,0,2.9-0.1,4.3-0.4C24,45.4,24.4,44.8,24.3,44.1z"/>
	</g>
</g>
<g>
	<g>
		<path class="st0" d="M27.9,42.4c-0.3-0.6-1.1-0.8-1.7-0.5c-0.1,0-0.2,0.1-0.2,0.1c-0.6,0.3-0.8,1.1-0.5,1.7
			c0.2,0.4,0.7,0.7,1.1,0.7c0.2,0,0.4,0,0.6-0.1c0.1-0.1,0.2-0.1,0.3-0.2C28.1,43.8,28.3,43,27.9,42.4z"/>
	</g>
</g>
<g>
	<g>
		<path class="st0" d="M55.4,27.2c-3.6-1.5-8.4-1.7-11.1-0.5c-0.6,0.3-0.9,1-0.6,1.6c0.3,0.6,1,0.9,1.6,0.6c1.8-0.8,5.9-0.8,9.1,0.6
			c0.2,0.1,0.3,0.1,0.5,0.1c0.5,0,1-0.3,1.2-0.8C56.4,28.2,56.1,27.4,55.4,27.2z"/>
	</g>
</g>
<g>
	<g>
		<path class="st0" d="M58.9,29.1c-0.1-0.1-0.1-0.1-0.2-0.1c-0.5-0.4-1.3-0.3-1.8,0.2c-0.4,0.5-0.3,1.3,0.2,1.8c0,0,0.1,0.1,0.1,0.1
			c0.2,0.2,0.5,0.3,0.8,0.3c0.4,0,0.7-0.2,1-0.5C59.5,30.3,59.4,29.5,58.9,29.1z"/>
	</g>
</g>
</svg>
