<?xml version="1.0" encoding="utf-8"?>
<!-- Generator: Adobe Illustrator 21.0.1, SVG Export Plug-In . SVG Version: 6.00 Build 0)  -->
<svg version="1.1" id="Capa_1" xmlns="http://www.w3.org/2000/svg" xmlns:xlink="http://www.w3.org/1999/xlink" x="0px" y="0px"
	 viewBox="0 0 61.7 64" style="enable-background:new 0 0 61.7 64;" xml:space="preserve">
<style type="text/css">
	.st0{fill:#FFFFFF;}
</style>
<g>
	<g>
		<path class="st0" d="M30.8,12.8c-9.9,0-18,8.1-18,18c0,3.1,0.8,6.2,2.4,8.9c1.5,2.6,3.7,4.8,6.2,6.4c2,1.2,2.4,2.4,2.6,4.1v8.6
			c0,0.7,0.6,1.2,1.2,1.2h0.3v2.6c0,0.7,0.6,1.2,1.2,1.2h7.9c0.7,0,1.2-0.6,1.2-1.2v-2.6h0.3c0.7,0,1.2-0.6,1.2-1.2v-8.6
			c0.2-1.7,0.6-2.8,2.6-4.1c2.6-1.6,4.7-3.8,6.2-6.4c1.5-2.7,2.4-5.8,2.4-8.9C48.8,20.9,40.8,12.8,30.8,12.8z M33.6,61.5h-5.4v-1.4
			h5.4V61.5z M35.1,53.3h-2.8c-0.7,0-1.2,0.6-1.2,1.2s0.6,1.2,1.2,1.2h2.8v1.8h-0.3h-7.9h-0.3v-6.2h8.6L35.1,53.3L35.1,53.3z
			 M38.9,44c-2.1,1.3-3.2,2.7-3.6,4.9l-4.5,0l-4.5,0c-0.4-2.1-1.5-3.6-3.6-4.9c-4.6-2.8-7.4-7.8-7.4-13.2c0-8.5,6.9-15.5,15.5-15.5
			c8.5,0,15.5,6.9,15.5,15.5C46.3,36.3,43.6,41.2,38.9,44z"/>
	</g>
</g>
<g>
	<g>
		<path class="st0" d="M37.3,18.4l-0.1-0.1c-0.6-0.3-1.4-0.1-1.7,0.5c-0.3,0.6-0.1,1.4,0.5,1.7l0.1,0.1c0.2,0.1,0.4,0.1,0.6,0.1
			c0.5,0,0.9-0.2,1.1-0.7C38.1,19.5,37.9,18.7,37.3,18.4z"/>
	</g>
</g>
<g>
	<g>
		<path class="st0" d="M40.7,20.9c-0.5-0.5-1.3-0.5-1.8,0c-0.5,0.5-0.5,1.3,0,1.8c2.2,2.2,3.4,5.1,3.4,8.2c0,1.2-0.2,2.3-0.5,3.4
			c-0.2,0.7,0.2,1.4,0.8,1.6c0.1,0,0.2,0.1,0.4,0.1c0.5,0,1-0.3,1.2-0.9c0.4-1.3,0.6-2.7,0.6-4.2C44.8,27.1,43.4,23.5,40.7,20.9z"/>
	</g>
</g>
<g>
	<g>
		<path class="st0" d="M30.8,0c-0.7,0-1.2,0.6-1.2,1.2V10c0,0.7,0.6,1.2,1.2,1.2s1.2-0.6,1.2-1.2V1.2C32.1,0.6,31.5,0,30.8,0z"/>
	</g>
</g>
<g>
	<g>
		<path class="st0" d="M10,29.6H1.2c-0.7,0-1.2,0.6-1.2,1.2s0.6,1.2,1.2,1.2H10c0.7,0,1.2-0.6,1.2-1.2S10.7,29.6,10,29.6z"/>
	</g>
</g>
<g>
	<g>
		<path class="st0" d="M60.4,29.6h-8.7c-0.7,0-1.2,0.6-1.2,1.2s0.6,1.2,1.2,1.2h8.7c0.7,0,1.2-0.6,1.2-1.2S61.1,29.6,60.4,29.6z"/>
	</g>
</g>
<g>
	<g>
		<path class="st0" d="M21.5,12.2l-4.4-7.6C16.8,4,16,3.8,15.4,4.1c-0.6,0.3-0.8,1.1-0.5,1.7l4.4,7.6c0.2,0.4,0.7,0.6,1.1,0.6
			c0.2,0,0.4-0.1,0.6-0.2C21.6,13.5,21.8,12.8,21.5,12.2z"/>
	</g>
</g>
<g>
	<g>
		<path class="st0" d="M46.7,55.8l-4.4-7.6c-0.3-0.6-1.1-0.8-1.7-0.5c-0.6,0.3-0.8,1.1-0.5,1.7l4.4,7.6c0.2,0.4,0.7,0.6,1.1,0.6
			c0.2,0,0.4-0.1,0.6-0.2C46.8,57.2,47,56.4,46.7,55.8z"/>
	</g>
</g>
<g>
	<g>
		<path class="st0" d="M13.4,19.3L5.8,15c-0.6-0.3-1.4-0.1-1.7,0.5C3.8,16,4,16.8,4.6,17.1l7.6,4.4c0.2,0.1,0.4,0.2,0.6,0.2
			c0.4,0,0.9-0.2,1.1-0.6C14.2,20.4,14,19.7,13.4,19.3z"/>
	</g>
</g>
<g>
	<g>
		<path class="st0" d="M57.1,44.5l-7.6-4.4c-0.6-0.3-1.4-0.1-1.7,0.5c-0.3,0.6-0.1,1.4,0.5,1.7l7.6,4.4c0.2,0.1,0.4,0.2,0.6,0.2
			c0.4,0,0.9-0.2,1.1-0.6C57.9,45.6,57.7,44.9,57.1,44.5z"/>
	</g>
</g>
<g>
	<g>
		<path class="st0" d="M57.5,15.4c-0.3-0.6-1.1-0.8-1.7-0.5l-7.6,4.4c-0.6,0.3-0.8,1.1-0.5,1.7c0.2,0.4,0.7,0.6,1.1,0.6
			c0.2,0,0.4-0.1,0.6-0.2l7.6-4.4C57.7,16.8,57.9,16,57.5,15.4z"/>
	</g>
</g>
<g>
	<g>
		<path class="st0" d="M13.9,40.6c-0.3-0.6-1.1-0.8-1.7-0.5l-7.6,4.4c-0.6,0.3-0.8,1.1-0.5,1.7c0.2,0.4,0.7,0.6,1.1,0.6
			c0.2,0,0.4-0.1,0.6-0.2l7.6-4.4C14,42,14.2,41.2,13.9,40.6z"/>
	</g>
</g>
<g>
	<g>
		<path class="st0" d="M21,47.8c-0.6-0.3-1.4-0.1-1.7,0.5L15,55.8c-0.3,0.6-0.1,1.4,0.5,1.7c0.2,0.1,0.4,0.2,0.6,0.2
			c0.4,0,0.9-0.2,1.1-0.6l4.4-7.6C21.8,48.9,21.6,48.1,21,47.8z"/>
	</g>
</g>
<g>
	<g>
		<path class="st0" d="M46.2,4.1c-0.6-0.3-1.4-0.1-1.7,0.5l-4.4,7.6c-0.3,0.6-0.1,1.4,0.5,1.7C40.8,14,41,14,41.2,14
			c0.4,0,0.9-0.2,1.1-0.6l4.4-7.6C47,5.2,46.8,4.5,46.2,4.1z"/>
	</g>
</g>
<g>
	<g>
		<path class="st0" d="M29.3,53.3L29.3,53.3c-0.7,0-1.3,0.6-1.3,1.2s0.6,1.2,1.2,1.2h0c0.7,0,1.2-0.6,1.2-1.2S30,53.3,29.3,53.3z"/>
	</g>
</g>
<g>
	<g>
		<path class="st0" d="M32.1,30.9V27c0.2,0.2,0.4,0.3,0.5,0.6c0.4,0.6,1.1,0.8,1.7,0.4c0.6-0.4,0.8-1.1,0.4-1.7
			c-0.6-1-1.6-1.7-2.6-2v-1.6c0-0.7-0.6-1.2-1.2-1.2c-0.7,0-1.2,0.6-1.2,1.2v1.6c-1.9,0.5-3.3,2.3-3.3,4.4c0,2.1,1.4,3.9,3.3,4.4V37
			c-0.2-0.2-0.4-0.3-0.5-0.6c-0.4-0.6-1.1-0.8-1.7-0.4c-0.6,0.4-0.8,1.1-0.4,1.7c0.6,1,1.6,1.7,2.6,2v1.6c0,0.7,0.6,1.2,1.2,1.2
			c0.7,0,1.2-0.6,1.2-1.2v-1.6c1.9-0.5,3.3-2.3,3.3-4.4C35.4,33.3,34,31.5,32.1,30.9z M29.6,30.3c-0.5-0.4-0.8-1-0.8-1.7
			c0-0.7,0.3-1.3,0.8-1.7V30.3z M32.1,37v-3.3c0.5,0.4,0.8,1,0.8,1.7C32.9,36,32.6,36.6,32.1,37z"/>
	</g>
</g>
</svg>
