<?xml version="1.0" encoding="iso-8859-1"?>
<!-- Generator: Adobe Illustrator 21.0.1, SVG Export Plug-In . SVG Version: 6.00 Build 0)  -->
<svg version="1.1" id="Capa_1" xmlns="http://www.w3.org/2000/svg" xmlns:xlink="http://www.w3.org/1999/xlink" x="0px" y="0px"
	 viewBox="175 365 64 64" style="enable-background:new 175 365 64 64;" xml:space="preserve">
<path style="fill:#FFFFFF;" d="M230.076,391.279c-0.422-0.548-0.864-1.066-1.315-1.539c-2.647-2.778-5.907-4.572-9.428-5.19
	c-0.68-0.119-1.328,0.335-1.447,1.015c-0.119,0.68,0.335,1.328,1.015,1.447c2.991,0.525,5.775,2.064,8.05,4.452
	c0.391,0.41,0.776,0.861,1.144,1.34c0.246,0.32,0.617,0.488,0.992,0.488c0.266,0,0.534-0.085,0.762-0.259
	C230.394,392.611,230.497,391.826,230.076,391.279z"/>
<path style="fill:#FFFFFF;" d="M232.071,394.452c-0.309-0.617-1.058-0.865-1.676-0.556c-0.617,0.309-0.866,1.061-0.558,1.679
	c0.211,0.456,0.663,0.724,1.134,0.724c0.175,0,0.352-0.037,0.522-0.115c0.627-0.288,0.902-1.031,0.613-1.658
	C232.095,394.501,232.083,394.476,232.071,394.452z"/>
<path style="fill:#FFFFFF;" d="M237.595,403.566c-0.513-1.075-1.361-2.855-1.376-3.444c1.462-3.603,0.929-7.59-1.506-11.237
	c-3.744-5.609-11.418-9.681-18.247-9.681c-2.275,0-4.518,0.341-6.67,1.011h-0.618c-0.158-0.438-0.337-0.87-0.536-1.292l3.565-3.564
	c0.234-0.234,0.366-0.552,0.366-0.884c0-0.332-0.132-0.65-0.366-0.884l-5.33-5.33c-0.488-0.488-1.279-0.488-1.768,0l-3.564,3.564
	c-0.422-0.199-0.854-0.378-1.292-0.536v-5.04c0-0.69-0.56-1.25-1.25-1.25h-7.537c-0.69,0-1.25,0.56-1.25,1.25v5.04
	c-0.439,0.158-0.87,0.337-1.292,0.536l-3.564-3.564c-0.234-0.235-0.552-0.366-0.884-0.366s-0.649,0.132-0.884,0.366l-5.33,5.329
	c-0.488,0.488-0.488,1.28,0,1.768l3.564,3.564c-0.199,0.422-0.378,0.853-0.536,1.292h-5.04c-0.69,0-1.25,0.56-1.25,1.25v7.537
	c0,0.69,0.56,1.25,1.25,1.25h5.04c0.158,0.439,0.337,0.87,0.536,1.292l-3.564,3.564c-0.488,0.488-0.488,1.28,0,1.768l5.33,5.33
	c0.488,0.488,1.279,0.488,1.768,0l3.564-3.564c0.422,0.199,0.854,0.378,1.292,0.536v5.04c0,0.69,0.56,1.25,1.25,1.25h2.9
	c0.874,5.072,3.469,9.687,7.388,13.095c0.04,0.124,0.155,0.702-0.341,2.429c-0.387,1.345-0.98,2.84-1.504,4.159
	c-0.351,0.883-0.653,1.645-0.836,2.221c-0.121,0.38-0.053,0.795,0.183,1.117c0.235,0.322,0.61,0.512,1.009,0.512h17.843
	c0.586,0,1.392-0.263,1.899-1.513c0.221-0.544,0.365-1.199,0.517-1.892c0.148-0.675,0.497-2.257,0.843-2.448
	c0,0,0.02-0.004,0.069,0.004c0.064,0.01,0.129,0.015,0.194,0.015c1.869,0,3.395,0.085,4.742,0.159
	c3.951,0.219,6.336,0.352,8.428-2.662c1.064-1.533,0.943-3.768,0.816-6.135c-0.066-1.22-0.133-2.479-0.013-3.525
	c0.218-0.215,0.765-0.59,1.107-0.825c1.178-0.809,2.291-1.573,2.291-2.735C239,406.559,238.466,405.394,237.595,403.566z
	 M191.812,397.069c-0.876-0.253-1.726-0.605-2.525-1.047c-0.488-0.27-1.094-0.184-1.489,0.21l-3.323,3.323l-3.562-3.562l3.323-3.323
	c0.394-0.394,0.48-1.001,0.21-1.488c-0.442-0.799-0.794-1.649-1.047-2.526c-0.154-0.535-0.644-0.903-1.201-0.903H177.5v-5.037h4.698
	c0.557,0,1.047-0.368,1.201-0.903c0.253-0.876,0.605-1.725,1.047-2.525c0.27-0.488,0.184-1.095-0.21-1.488l-3.323-3.323l3.562-3.562
	l3.323,3.323c0.394,0.394,1.001,0.48,1.488,0.21c0.8-0.442,1.65-0.794,2.525-1.047c0.535-0.154,0.904-0.644,0.904-1.201V367.5h5.037
	v4.698c0,0.557,0.368,1.047,0.904,1.201c0.876,0.253,1.725,0.605,2.525,1.047c0.487,0.27,1.094,0.184,1.488-0.21l3.323-3.323
	l3.562,3.562l-3.323,3.323c-0.394,0.394-0.48,1.001-0.21,1.488c0.443,0.801,0.795,1.651,1.047,2.525
	c0.154,0.535,0.644,0.904,1.201,0.904h1.721c0.003,0,0.006,0,0.009,0h2.969v5.037h-4.699c-0.557,0-1.046,0.368-1.201,0.903
	c-0.253,0.876-0.605,1.726-1.047,2.525c-0.27,0.488-0.184,1.095,0.21,1.489l3.323,3.323l-3.562,3.562l-3.323-3.323
	c-0.394-0.394-1.001-0.48-1.489-0.21c-0.8,0.442-1.649,0.794-2.525,1.047c-0.535,0.154-0.904,0.644-0.904,1.201v4.698h-5.037v-4.698
	C192.716,397.713,192.347,397.223,191.812,397.069z M235.294,408.117c-1.076,0.739-2.005,1.377-2.142,2.343
	c-0.188,1.324-0.109,2.788-0.033,4.203c0.095,1.756,0.202,3.746-0.373,4.575c-1.244,1.792-2.32,1.809-6.236,1.592
	c-1.292-0.072-2.896-0.161-4.797-0.163c-0.731-0.087-1.966,0.051-2.79,1.653c-0.419,0.814-0.644,1.836-0.842,2.739
	c-0.1,0.453-0.24,1.09-0.371,1.443h-15.647c0.055-0.138,0.112-0.281,0.169-0.427c1.8-4.534,2.941-7.859,1.205-9.36
	c-3.396-2.937-5.682-6.889-6.53-11.245h2.096c0.69,0,1.25-0.56,1.25-1.25v-5.04c0.439-0.158,0.87-0.337,1.292-0.536l3.564,3.564
	c0.488,0.488,1.279,0.488,1.768,0l5.33-5.33c0.234-0.234,0.366-0.552,0.366-0.884c0-0.331-0.132-0.65-0.366-0.884l-3.564-3.564
	c0.199-0.422,0.378-0.854,0.536-1.292h5.04c0.69,0,1.25-0.56,1.25-1.25v-7.273c0.331-0.016,0.664-0.025,0.997-0.025
	c5.956,0,12.907,3.684,16.167,8.568c1.398,2.094,2.747,5.35,1.241,8.976c-0.49,1.181,0.237,2.819,1.464,5.393
	c0.397,0.833,0.972,2.039,1.125,2.603C236.205,407.491,235.649,407.873,235.294,408.117z"/>
<path style="fill:#FFFFFF;" d="M195.191,379.158l0.044,0c0.69,0,1.25-0.56,1.25-1.25s-0.56-1.25-1.25-1.25l-0.044,0
	c-0.69,0-1.25,0.56-1.25,1.25S194.5,379.158,195.191,379.158z"/>
<path style="fill:#FFFFFF;" d="M191.32,389.882c-1.374-1.159-2.162-2.853-2.162-4.648c0-2.317,1.288-4.401,3.362-5.438
	c0.617-0.309,0.867-1.06,0.559-1.677c-0.309-0.617-1.06-0.868-1.677-0.559c-2.926,1.464-4.744,4.404-4.744,7.674
	c0,2.533,1.112,4.924,3.05,6.559c0.234,0.198,0.521,0.294,0.805,0.294c0.356,0,0.709-0.151,0.956-0.444
	C191.915,391.115,191.848,390.326,191.32,389.882z"/>
<path style="fill:#FFFFFF;" d="M200.06,385.234c0-2.661-2.165-4.826-4.826-4.826c-2.661,0-4.826,2.165-4.826,4.826
	c0,2.661,2.165,4.826,4.826,4.826C197.895,390.06,200.06,387.895,200.06,385.234z M192.908,385.234c0-1.283,1.044-2.326,2.326-2.326
	c1.283,0,2.326,1.043,2.326,2.326s-1.043,2.326-2.326,2.326C193.951,387.56,192.908,386.517,192.908,385.234z"/>
</svg>
