<?xml version="1.0" encoding="utf-8"?>
<!-- Generator: Adobe Illustrator 21.0.1, SVG Export Plug-In . SVG Version: 6.00 Build 0)  -->
<svg version="1.1" id="Capa_1" xmlns="http://www.w3.org/2000/svg" xmlns:xlink="http://www.w3.org/1999/xlink" x="0px" y="0px"
	 viewBox="0 0 64 64" style="enable-background:new 0 0 64 64;" xml:space="preserve">
<style type="text/css">
	.st0{fill:#FFFFFF;}
</style>
<g>
	<g>
		<path class="st0" d="M56.5,49c-4.1,0-7.5,3.4-7.5,7.5s3.4,7.5,7.5,7.5s7.5-3.4,7.5-7.5S60.6,49,56.5,49z"/>
	</g>
</g>
<g>
	<g>
		<path class="st0" d="M7.5,49C3.4,49,0,52.4,0,56.5S3.4,64,7.5,64s7.5-3.4,7.5-7.5S11.6,49,7.5,49z"/>
	</g>
</g>
<g>
	<g>
		<path class="st0" d="M7.5,0C3.4,0,0,3.4,0,7.5S3.4,15,7.5,15S15,11.6,15,7.5S11.6,0,7.5,0z"/>
	</g>
</g>
<g>
	<g>
		<path class="st0" d="M52.8,24.1v21.9c1.2-0.4,2.4-0.7,3.8-0.7s2.6,0.3,3.8,0.7V16.6L52.8,24.1z"/>
	</g>
</g>
<g>
	<g>
		<path class="st0" d="M18.8,28.1h-7.5V18.1c-1.2,0.4-2.4,0.7-3.8,0.7s-2.6-0.3-3.8-0.7v27.9c1.2-0.4,2.4-0.7,3.8-0.7
			s2.6,0.3,3.8,0.7V35.6h7.5c1,0,1.9-0.8,1.9-1.9V30C20.6,29,19.8,28.1,18.8,28.1z"/>
	</g>
</g>
<g>
	<g>
		<path class="st0" d="M18.1,3.8c0.4,1.2,0.7,2.4,0.7,3.8s-0.3,2.6-0.7,3.8h21.9l7.5-7.5H18.1z"/>
	</g>
</g>
<g>
	<g>
		<path class="st0" d="M45.9,60.3c-0.4-1.2-0.7-2.4-0.7-3.8s0.3-2.6,0.7-3.8H35.9v-7.5c0-1-0.8-1.9-1.9-1.9h-3.8
			c-1,0-1.9,0.8-1.9,1.9v7.5H18.1c0.4,1.2,0.7,2.4,0.7,3.8s-0.3,2.6-0.7,3.8H45.9z"/>
	</g>
</g>
<g>
	<g>
		<path class="st0" d="M62.4,1.6c-2.1-2.1-5.4-2.1-7.5,0L48.5,8c1.8,0.5,3.5,1.3,4.8,2.7c1.3,1.3,2.2,3,2.7,4.8l6.4-6.4
			C64.5,7,64.5,3.6,62.4,1.6z"/>
	</g>
</g>
<g>
	<g>
		<path class="st0" d="M50.6,13.4c-1.5-1.5-3.5-2.2-5.4-2.1L33.8,22.7c4.1,0.8,6.8,3.9,7.4,7.6l11.5-11.5
			C52.8,16.8,52.1,14.8,50.6,13.4z"/>
	</g>
</g>
<g>
	<g>
		<path class="st0" d="M30.1,26.6l-2.4,7.3c-0.5,1.5,0.9,2.9,2.4,2.4l7.7-2.6v-1.9C37.8,28.2,34.3,25.2,30.1,26.6z"/>
	</g>
</g>
</svg>
